<svg width="201" height="62" viewBox="0 0 201 62" fill="none" xmlns="http://www.w3.org/2000/svg">
<path d="M14.48 61C6.96 61 0.8 54.76 0.8 47.16V1.96C0.8 1.39999 1.28 0.919996 1.84 0.919996H8.32V47.88C8.32 51.32 11.12 54.12 14.48 54.12H39.44C40 54.12 40.48 54.6 40.48 55.16V61H14.48ZM78.4938 61.32H60.4138C52.8938 61.32 46.8138 55.24 46.8138 47.72V14.2C46.8138 6.68 52.8938 0.599996 60.4138 0.599996H78.4938C85.9338 0.599996 92.0938 6.68 92.0938 14.2V47.72C92.0938 55.24 85.9338 61.32 78.4938 61.32ZM60.4138 7.48C57.0538 7.48 54.3338 10.2 54.3338 13.56V48.36C54.3338 51.72 57.0538 54.44 60.4138 54.44H78.4938C81.8538 54.44 84.5738 51.72 84.5738 48.36V13.56C84.5738 10.2 81.8538 7.48 78.4938 7.48H60.4138ZM115.339 61.32C107.819 61.32 101.739 55.24 101.739 47.72V14.2C101.739 6.68 107.819 0.599996 115.339 0.599996H142.779V6.44C142.779 7 142.299 7.48 141.659 7.48H115.339C111.979 7.48 109.259 10.2 109.259 13.56V48.36C109.259 51.72 111.979 54.44 115.339 54.44H131.899C135.259 54.44 138.699 51.72 138.699 48.36V33.88H124.139C123.579 33.88 123.099 33.4 123.099 32.84V27H144.459C145.019 27 145.499 27.48 145.499 28.04V48.52C145.499 57 139.419 61.32 131.899 61.32H115.339ZM186.541 61.32H168.461C160.941 61.32 154.861 55.24 154.861 47.72V14.2C154.861 6.68 160.941 0.599996 168.461 0.599996H186.541C193.981 0.599996 200.141 6.68 200.141 14.2V47.72C200.141 55.24 193.981 61.32 186.541 61.32ZM168.461 7.48C165.101 7.48 162.381 10.2 162.381 13.56V48.36C162.381 51.72 165.101 54.44 168.461 54.44H186.541C189.901 54.44 192.621 51.72 192.621 48.36V13.56C192.621 10.2 189.901 7.48 186.541 7.48H168.461Z" fill="url(#paint0_linear_1401_807)"/>
<defs>
<linearGradient id="paint0_linear_1401_807" x1="100.5" y1="10" x2="100.5" y2="71" gradientUnits="userSpaceOnUse">
<stop stop-color="#91DDFF"/>
<stop offset="1" stop-color="#7A9EAE"/>
</linearGradient>
</defs>
</svg>
