<svg width="45" height="45" viewBox="0 0 45 45" fill="none" xmlns="http://www.w3.org/2000/svg">
<path d="M42.1895 22.9372C42.1895 21.3185 42.0554 20.1373 41.7654 18.9123H22.9038V26.2184H33.9751C33.752 28.0341 32.5466 30.7685 29.868 32.6059L29.8305 32.8505L35.7941 37.3781L36.2073 37.4185C40.0019 33.9841 42.1895 28.931 42.1895 22.9372Z" fill="#4285F4"/>
<path d="M22.9025 42.1875C28.3265 42.1875 32.88 40.4374 36.206 37.4187L29.8667 32.606C28.1703 33.7654 25.8935 34.5748 22.9025 34.5748C17.5901 34.5748 13.0812 31.1405 11.4739 26.3936L11.2383 26.4132L5.03721 31.1164L4.95612 31.3373C8.25964 37.7686 15.0453 42.1875 22.9025 42.1875Z" fill="#34A853"/>
<path d="M11.4751 26.3937C11.051 25.1687 10.8056 23.8561 10.8056 22.4999C10.8056 21.1436 11.051 19.8312 11.4528 18.6062L11.4416 18.3453L5.16272 13.5666L4.95729 13.6624C3.59574 16.3311 2.81448 19.3281 2.81448 22.4999C2.81448 25.6718 3.59574 28.6686 4.95729 31.3374L11.4751 26.3937Z" fill="#FBBC05"/>
<path d="M22.9026 10.4249C26.6749 10.4249 29.2195 12.0218 30.6704 13.3563L36.3401 7.93125C32.858 4.75938 28.3267 2.8125 22.9026 2.8125C15.0454 2.8125 8.25966 7.23121 4.95612 13.6624L11.4516 18.6062C13.0812 13.8594 17.5901 10.4249 22.9026 10.4249Z" fill="#EB4335"/>
</svg>
